<svg id="Layer_1" xmlns="http://www.w3.org/2000/svg" viewBox="0 0 200 200">
    <path d="M123.94,62.5c-.59-.49-1.21-1-1.83-1.44-1.25-.93-2.55-1.81-3.88-2.62-.67-.41-1.36-.8-2-1.17-1.39-.75-2.82-1.44-4.25-2.05-.74-.31-1.48-.6-2.21-.87-1.5-.55-3-1-4.57-1.42a48.6,48.6,0,1,0,0,94.14c1.53-.4,3.07-.87,4.57-1.42.63-.23,1.27-.48,1.9-.74l.26-.11,0,0,1-.42h0c1.1-.5,2.19-1,3.26-1.62.68-.37,1.37-.77,2-1.17,1.33-.81,2.63-1.69,3.88-2.62.61-.46,1.23-.94,1.83-1.44a48.59,48.59,0,0,0,0-75Zm-17.11,75.21c-1.23.45-2.5.84-3.77,1.17a40.66,40.66,0,0,1-10,1.26,40.14,40.14,0,0,1,0-80.28,40.66,40.66,0,0,1,10,1.26,38.27,38.27,0,0,1,3.77,1.18c.61.22,1.22.46,1.82.71,1.19.51,2.37,1.07,3.51,1.69.56.31,1.13.63,1.68,1,1.09.66,2.17,1.39,3.2,2.16.53.39,1,.8,1.52,1.19a40.14,40.14,0,0,1,0,62c-.5.41-1,.82-1.52,1.2-1,.76-2.1,1.49-3.2,2.16-.55.33-1.11.66-1.68,1-1.14.62-2.32,1.19-3.51,1.69C108.05,137.24,107.44,137.48,106.83,137.71Z" />
    <path d="M41.59,84.83a4.24,4.24,0,0,0-5.92.93L17.39,110.84a4.23,4.23,0,0,0,.93,5.9,4.15,4.15,0,0,0,2.49.82,4.23,4.23,0,0,0,3.42-1.74L42.51,90.74A4.24,4.24,0,0,0,41.59,84.83Z" />
    <path d="M31.18,64.94a4.56,4.56,0,0,0,.82-.08l30.44-6a4.23,4.23,0,1,0-1.64-8.3l-30.44,6a4.23,4.23,0,0,0,.82,8.38Z" />
    <path d="M77.17,31.38l25.21,18.09a4.23,4.23,0,1,0,4.93-6.87L82.11,24.51a4.24,4.24,0,0,0-5.91,1,4.23,4.23,0,0,0,1,5.91Z" />
    <path d="M136.48,37.07a4.23,4.23,0,0,0-8.29,1.7l6.23,30.4a4.23,4.23,0,0,0,8.29-1.7Z" />
    <path d="M110.87,168.76,85.25,151.25a4.23,4.23,0,1,0-4.77,7l25.61,17.52a4.27,4.27,0,0,0,2.39.74,4.21,4.21,0,0,0,3.49-1.85,4.17,4.17,0,0,0,.67-3.16A4.22,4.22,0,0,0,110.87,168.76Z" />
    <path d="M52.77,132.29a4.23,4.23,0,0,0-8.25,1.89l6.93,30.25a4.21,4.21,0,0,0,4.12,3.29,4.33,4.33,0,0,0,1-.11,4.24,4.24,0,0,0,3.18-5.07Z" />
    <path d="M93.63,62.27a8.58,8.58,0,1,0,8.57,8.58A8.59,8.59,0,0,0,93.63,62.27Z" />
    <path d="M120.32,99.33a8.58,8.58,0,1,0-8.57-8.58A8.59,8.59,0,0,0,120.32,99.33Z" />
    <path d="M73.79,90.75a8.58,8.58,0,1,0-8.58,8.58A8.59,8.59,0,0,0,73.79,90.75Z" />
    <circle cx="110.68" cy="123.5" r="8.58" transform="translate(-18.35 19.32) rotate(-9.22)" />
    <circle cx="75.83" cy="123.5" r="8.58" />
    <path d="M170.86,34.45a6.59,6.59,0,0,0-11.18,1.95l-1.63,4.32a88,88,0,1,0-.12,118.68l1.76,4.69a6.52,6.52,0,0,0,5,4.18,6.62,6.62,0,0,0,1.17.11,6.53,6.53,0,0,0,5-2.32,101.79,101.79,0,0,0,0-131.61Zm-24.42,37a6.53,6.53,0,0,0,.12,5,58,58,0,0,1,4.91,21.69l-7.31,10.52a4.22,4.22,0,0,0,1.06,5.88,4.18,4.18,0,0,0,2.41.76,4.23,4.23,0,0,0,2-.51,58.34,58.34,0,0,1-3.12,8.93,6.53,6.53,0,0,0-.13,4.95l2.63,7L125,141a4.23,4.23,0,0,0,.91,8.36,4,4,0,0,0,.91-.1L152,143.64l2.53,6.75a79.57,79.57,0,1,1,.1-100.66Z" />
</svg>